<svg version="1.1" id="Layer_1" xmlns="http://www.w3.org/2000/svg" xmlns:xlink="http://www.w3.org/1999/xlink" x="0px" y="0px"
	 width="100%" viewBox="0 0 296 284" enable-background="new 0 0 296 284" xml:space="preserve">
<path fill="none" opacity="0" stroke="none" 
	d="
M168.000000,285.000000 
	C112.000008,285.000000 56.500011,285.000000 1.000015,285.000000 
	C1.000010,190.333359 1.000010,95.666702 1.000005,1.000040 
	C99.666634,1.000027 198.333267,1.000027 296.999939,1.000013 
	C296.999939,95.666626 296.999939,190.333252 296.999969,284.999939 
	C254.166672,285.000000 211.333328,285.000000 168.000000,285.000000 
M220.790497,202.891739 
	C214.637695,202.974579 208.466660,203.339798 202.344696,202.944778 
	C200.784058,202.844070 199.126343,200.508682 197.984924,198.871246 
	C197.120697,197.631485 197.006332,195.869003 196.199356,193.113663 
	C190.580338,200.122162 185.874207,205.992050 180.560989,212.619125 
	C187.212814,213.464523 188.648331,216.868439 188.191299,221.697937 
	C187.956680,224.177155 187.996292,226.693756 188.073502,229.188461 
	C188.202179,233.346161 186.166992,234.636765 182.191818,234.529602 
	C177.225372,234.395737 172.185333,234.407364 167.282822,235.102219 
	C160.267380,236.096558 155.292542,242.308884 154.884323,250.057068 
	C156.656845,250.163712 158.436020,250.362991 160.215332,250.364059 
	C191.029465,250.382751 221.843674,250.405716 252.657761,250.364594 
	C268.055084,250.344055 274.988220,243.557831 275.192139,228.190308 
	C275.342407,216.866028 275.212067,205.538147 275.226196,194.211884 
	C275.244934,179.221237 275.249664,164.230469 275.327423,149.240082 
	C275.361755,142.622101 273.724274,136.721619 268.534302,132.239334 
	C264.608826,128.849152 261.912018,128.909622 258.026825,132.360001 
	C253.047638,136.781982 248.029861,141.161865 243.118988,145.658508 
	C241.758087,146.904617 240.717514,148.500580 238.507492,151.171997 
	C242.430573,151.439316 244.799210,151.732346 247.168854,151.740540 
	C261.230988,151.789139 261.590881,152.166641 260.098267,166.124908 
	C259.573181,171.035629 257.583954,172.666504 252.487610,172.532150 
	C249.000046,172.440186 245.505356,172.374084 242.020157,172.488419 
	C235.641724,172.697662 234.054733,171.130157 234.033981,164.752411 
	C234.025497,162.146805 233.552933,159.542725 233.218185,156.207382 
	C228.227631,159.054047 224.212158,161.358627 224.157867,166.247360 
	C224.106369,170.883896 221.898438,172.362122 217.882721,172.811905 
	C212.709747,173.391296 210.541824,177.067612 208.890823,181.284958 
	C213.787048,183.996384 221.170074,180.428391 223.215332,186.981125 
	C224.753189,191.908234 225.842010,197.743179 220.790497,202.891739 
M172.808762,169.301590 
	C163.417542,180.981522 154.001846,192.641953 144.657349,204.359161 
	C142.945038,206.506256 141.522247,208.884232 139.863571,211.304886 
	C137.871033,209.146286 137.419800,208.656952 136.968002,208.168121 
	C127.355293,197.767014 117.742249,187.366257 108.129921,176.964813 
	C104.045273,172.544846 102.362251,172.359192 97.622009,176.092407 
	C95.006767,178.152054 92.472542,180.325577 90.013535,182.570190 
	C85.479233,186.709167 85.413902,189.309204 89.617172,193.939621 
	C104.513031,210.349228 119.422180,226.746811 134.319504,243.155106 
	C141.473328,251.034531 141.518051,251.077408 147.679108,242.387680 
	C166.396317,215.988449 186.200714,190.452866 209.099472,167.522766 
	C221.332275,155.273193 234.382492,143.842941 246.795761,131.767395 
	C248.740463,129.875626 250.691605,126.184235 250.166046,123.892242 
	C248.474365,116.515060 238.219955,111.865150 231.172470,114.911942 
	C227.720551,116.404289 224.212708,118.379730 221.545624,120.974655 
	C205.316650,136.764511 189.322327,152.795547 172.808762,169.301590 
M249.712860,101.914940 
	C249.118881,108.050980 252.345581,112.080437 257.294769,114.837105 
	C261.256866,117.043968 265.372345,116.513672 269.127533,114.045341 
	C274.073395,110.794357 276.084656,104.527618 274.225983,98.601639 
	C272.568359,93.316910 267.346588,89.822250 261.502014,90.086250 
	C255.687286,90.348900 251.652527,94.183846 249.712860,101.914940 
z"/>
<path fill="#050505" opacity="1.000000" stroke="none" 
	d="
M221.190826,202.701263 
	C225.842010,197.743179 224.753189,191.908234 223.215332,186.981125 
	C221.170074,180.428391 213.787048,183.996384 208.890823,181.284958 
	C210.541824,177.067612 212.709747,173.391296 217.882721,172.811905 
	C221.898438,172.362122 224.106369,170.883896 224.157867,166.247360 
	C224.212158,161.358627 228.227631,159.054047 233.218185,156.207382 
	C233.552933,159.542725 234.025497,162.146805 234.033981,164.752411 
	C234.054733,171.130157 235.641724,172.697662 242.020157,172.488419 
	C245.505356,172.374084 249.000046,172.440186 252.487610,172.532150 
	C257.583954,172.666504 259.573181,171.035629 260.098267,166.124908 
	C261.590881,152.166641 261.230988,151.789139 247.168854,151.740540 
	C244.799210,151.732346 242.430573,151.439316 238.507492,151.171997 
	C240.717514,148.500580 241.758087,146.904617 243.118988,145.658508 
	C248.029861,141.161865 253.047638,136.781982 258.026825,132.360001 
	C261.912018,128.909622 264.608826,128.849152 268.534302,132.239334 
	C273.724274,136.721619 275.361755,142.622101 275.327423,149.240082 
	C275.249664,164.230469 275.244934,179.221237 275.226196,194.211884 
	C275.212067,205.538147 275.342407,216.866028 275.192139,228.190308 
	C274.988220,243.557831 268.055084,250.344055 252.657761,250.364594 
	C221.843674,250.405716 191.029465,250.382751 160.215332,250.364059 
	C158.436020,250.362991 156.656845,250.163712 154.884323,250.057068 
	C155.292542,242.308884 160.267380,236.096558 167.282822,235.102219 
	C172.185333,234.407364 177.225372,234.395737 182.191818,234.529602 
	C186.166992,234.636765 188.202179,233.346161 188.073502,229.188461 
	C187.996292,226.693756 187.956680,224.177155 188.191299,221.697937 
	C188.648331,216.868439 187.212814,213.464523 180.560989,212.619125 
	C185.874207,205.992050 190.580338,200.122162 196.199356,193.113663 
	C197.006332,195.869003 197.120697,197.631485 197.984924,198.871246 
	C199.126343,200.508682 200.784058,202.844070 202.344696,202.944778 
	C208.466660,203.339798 214.637695,202.974579 221.190826,202.701263 
M249.417236,182.121429 
	C233.268326,182.401489 233.821930,179.231201 234.213089,197.282425 
	C234.301147,201.346008 236.375763,203.303940 240.481339,203.250687 
	C245.628387,203.183914 250.779831,203.143280 255.923996,203.285873 
	C259.012146,203.371490 260.076111,201.854431 260.084106,199.063034 
	C260.095520,195.075516 260.090759,191.086548 260.199951,187.101120 
	C260.292938,183.707214 258.502380,182.273666 255.355331,182.151489 
	C253.696014,182.087082 252.032623,182.128052 249.417236,182.121429 
M203.965851,213.359283 
	C199.480240,212.939651 197.566742,214.985214 197.807327,219.462402 
	C198.002823,223.100449 197.580292,226.797913 198.073441,230.380707 
	C198.267700,231.792007 200.135666,233.989075 201.357422,234.069626 
	C207.134201,234.450439 212.954758,234.343445 218.752380,234.168060 
	C222.397675,234.057785 224.449417,231.610840 223.874893,228.235535 
	C223.033188,223.290710 227.178650,216.983124 220.237473,213.608017 
	C219.545410,213.271515 218.611145,213.378098 217.788788,213.373886 
	C213.484818,213.351822 209.180664,213.360352 203.965851,213.359283 
M255.481934,213.872910 
	C249.362320,213.911545 243.236267,213.820587 237.129868,214.124664 
	C236.183105,214.171829 234.598831,215.993362 234.549713,217.051926 
	C234.290268,222.642563 234.428040,228.251648 234.428040,234.252853 
	C238.392670,234.252853 241.697083,234.252975 245.001495,234.252838 
	C259.762299,234.252258 260.960968,232.883560 260.071899,218.239792 
	C259.904663,215.485352 258.808899,214.342560 255.481934,213.872910 
z"/>
<path fill="#040404" opacity="1.000000" stroke="none" 
	d="
M173.029236,169.023834 
	C189.322327,152.795547 205.316650,136.764511 221.545624,120.974655 
	C224.212708,118.379730 227.720551,116.404289 231.172470,114.911942 
	C238.219955,111.865150 248.474365,116.515060 250.166046,123.892242 
	C250.691605,126.184235 248.740463,129.875626 246.795761,131.767395 
	C234.382492,143.842941 221.332275,155.273193 209.099472,167.522766 
	C186.200714,190.452866 166.396317,215.988449 147.679108,242.387680 
	C141.518051,251.077408 141.473328,251.034531 134.319504,243.155106 
	C119.422180,226.746811 104.513031,210.349228 89.617172,193.939621 
	C85.413902,189.309204 85.479233,186.709167 90.013535,182.570190 
	C92.472542,180.325577 95.006767,178.152054 97.622009,176.092407 
	C102.362251,172.359192 104.045273,172.544846 108.129921,176.964813 
	C117.742249,187.366257 127.355293,197.767014 136.968002,208.168121 
	C137.419800,208.656952 137.871033,209.146286 139.863571,211.304886 
	C141.522247,208.884232 142.945038,206.506256 144.657349,204.359161 
	C154.001846,192.641953 163.417542,180.981522 173.029236,169.023834 
z"/>
<path fill="#060606" opacity="1.000000" stroke="none" 
	d="
M249.780609,101.538872 
	C251.652527,94.183846 255.687286,90.348900 261.502014,90.086250 
	C267.346588,89.822250 272.568359,93.316910 274.225983,98.601639 
	C276.084656,104.527618 274.073395,110.794357 269.127533,114.045341 
	C265.372345,116.513672 261.256866,117.043968 257.294769,114.837105 
	C252.345581,112.080437 249.118881,108.050980 249.780609,101.538872 
z"/>
<path fill="#FAFAFA" opacity="1.000000" stroke="none" 
	d="
M249.894150,182.121429 
	C252.032623,182.128052 253.696014,182.087082 255.355331,182.151489 
	C258.502380,182.273666 260.292938,183.707214 260.199951,187.101120 
	C260.090759,191.086548 260.095520,195.075516 260.084106,199.063034 
	C260.076111,201.854431 259.012146,203.371490 255.923996,203.285873 
	C250.779831,203.143280 245.628387,203.183914 240.481339,203.250687 
	C236.375763,203.303940 234.301147,201.346008 234.213089,197.282425 
	C233.821930,179.231201 233.268326,182.401489 249.894150,182.121429 
z"/>
<path fill="#F9F9F9" opacity="1.000000" stroke="none" 
	d="
M204.421219,213.358765 
	C209.180664,213.360352 213.484818,213.351822 217.788788,213.373886 
	C218.611145,213.378098 219.545410,213.271515 220.237473,213.608017 
	C227.178650,216.983124 223.033188,223.290710 223.874893,228.235535 
	C224.449417,231.610840 222.397675,234.057785 218.752380,234.168060 
	C212.954758,234.343445 207.134201,234.450439 201.357422,234.069626 
	C200.135666,233.989075 198.267700,231.792007 198.073441,230.380707 
	C197.580292,226.797913 198.002823,223.100449 197.807327,219.462402 
	C197.566742,214.985214 199.480240,212.939651 204.421219,213.358765 
z"/>
<path fill="#F9F9F9" opacity="1.000000" stroke="none" 
	d="
M255.912827,213.938080 
	C258.808899,214.342560 259.904663,215.485352 260.071899,218.239792 
	C260.960968,232.883560 259.762299,234.252258 245.001495,234.252838 
	C241.697083,234.252975 238.392670,234.252853 234.428040,234.252853 
	C234.428040,228.251648 234.290268,222.642563 234.549713,217.051926 
	C234.598831,215.993362 236.183105,214.171829 237.129868,214.124664 
	C243.236267,213.820587 249.362320,213.911545 255.912827,213.938080 
z"/>
</svg>